<svg width="24" height="24" viewBox="0 0 64 64" fill="none" xmlns="http://www.w3.org/2000/svg">
<path d="M32 2C18.214 2 7 13.216 7 27C7 40.784 18.215 52 32 52C45.786 52 57 40.784 57 27C57 13.216 45.785 2 32 2ZM32 47.001C20.971 47.001 11.999 38.029 11.999 27C11.999 15.973 20.97 7.001 32 7.001C43.028 7.001 51.999 15.973 51.999 27C51.998 38.029 43.027 47.001 32 47.001Z" fill="white"/>
<path d="M25.414 19.337C26.3401 18.3552 27.447 17.5614 28.674 16.999C29.9264 16.4236 31.2898 16.1301 32.668 16.139C34.417 16.139 36.022 16.556 37.485 17.39C38.9272 18.2056 40.156 19.3508 41.071 20.732L44.635 18.067C43.281 16.2184 41.5217 14.7044 39.492 13.641C37.43 12.547 35.154 12 32.667 12C30.618 12 28.692 12.396 26.89 13.19C25.1286 13.9517 23.5289 15.043 22.177 16.405C20.827 17.7752 19.7493 19.389 19.001 21.161C18.222 22.975 17.833 24.924 17.833 27.001C17.833 29.076 18.222 31.023 19.001 32.842C19.7485 34.6132 20.8264 36.2259 22.177 37.594C23.529 38.9569 25.1286 40.0495 26.89 40.813C28.693 41.603 30.619 42 32.667 42C35.154 42 37.429 41.453 39.492 40.358C41.5228 39.2962 43.2824 37.7819 44.635 35.932L41.071 33.271C40.1544 34.6501 38.9259 35.794 37.485 36.61C36.022 37.443 34.417 37.86 32.668 37.86C31.2897 37.8694 29.9262 37.5758 28.674 37C27.4468 36.438 26.3399 35.6441 25.414 34.662C24.486 33.682 23.748 32.531 23.201 31.221C22.654 29.911 22.381 28.502 22.381 27.001C22.381 25.497 22.654 24.09 23.201 22.779C23.748 21.468 24.486 20.321 25.414 19.337" fill="white"/>
</svg>
