<svg width="32" height="32" viewBox="0 0 24 24" fill="none" xmlns="http://www.w3.org/2000/svg">
<path d="M11.9999 0C8.74344 0 8.33394 0.015 7.05444 0.072C5.77494 0.132 4.90344 0.333 4.13994 0.63C3.33908 0.931229 2.61368 1.40374 2.01444 2.0145C1.40405 2.61404 0.9316 3.33936 0.629939 4.14C0.332939 4.902 0.130439 5.775 0.071939 7.05C0.014939 8.3325 -6.10352e-05 8.7405 -6.10352e-05 12.0015C-6.10352e-05 15.2595 0.014939 15.6675 0.071939 16.947C0.131939 18.225 0.332939 19.0965 0.629939 19.86C0.937439 20.649 1.34694 21.318 2.01444 21.9855C2.68044 22.653 3.34944 23.064 4.13844 23.37C4.90344 23.667 5.77344 23.8695 7.05144 23.928C8.33244 23.985 8.74044 24 11.9999 24C15.2594 24 15.6659 23.985 16.9469 23.928C18.2234 23.868 19.0979 23.667 19.8614 23.37C20.6618 23.0686 21.3867 22.5961 21.9854 21.9855C22.6529 21.318 23.0624 20.649 23.3699 19.86C23.6654 19.0965 23.8679 18.225 23.9279 16.947C23.9849 15.6675 23.9999 15.2595 23.9999 12C23.9999 8.7405 23.9849 8.3325 23.9279 7.0515C23.8679 5.775 23.6654 4.902 23.3699 4.14C23.0683 3.33934 22.5959 2.61401 21.9854 2.0145C21.3864 1.40351 20.6609 0.930968 19.8599 0.63C19.0949 0.333 18.2219 0.1305 16.9454 0.072C15.6644 0.015 15.2579 0 11.9969 0H12.0014H11.9999ZM10.9244 2.163H12.0014C15.2054 2.163 15.5849 2.1735 16.8494 2.232C18.0194 2.2845 18.6554 2.481 19.0784 2.6445C19.6379 2.862 20.0384 3.123 20.4584 3.543C20.8784 3.963 21.1379 4.362 21.3554 4.923C21.5204 5.3445 21.7154 5.9805 21.7679 7.1505C21.8264 8.415 21.8384 8.7945 21.8384 11.997C21.8384 15.1995 21.8264 15.5805 21.7679 16.845C21.7154 18.015 21.5189 18.6495 21.3554 19.0725C21.1631 19.5935 20.856 20.0647 20.4569 20.451C20.0369 20.871 19.6379 21.1305 19.0769 21.348C18.6569 21.513 18.0209 21.708 16.8494 21.762C15.5849 21.819 15.2054 21.8325 12.0014 21.8325C8.79744 21.8325 8.41644 21.819 7.15194 21.762C5.98194 21.708 5.34744 21.513 4.92444 21.348C4.40319 21.1559 3.93163 20.8494 3.54444 20.451C3.14507 20.064 2.83752 19.5925 2.64444 19.071C2.48094 18.6495 2.28444 18.0135 2.23194 16.8435C2.17494 15.579 2.16294 15.1995 2.16294 11.994C2.16294 8.79 2.17494 8.412 2.23194 7.1475C2.28594 5.9775 2.48094 5.3415 2.64594 4.9185C2.86344 4.359 3.12444 3.9585 3.54444 3.5385C3.96444 3.1185 4.36344 2.859 4.92444 2.6415C5.34744 2.4765 5.98194 2.2815 7.15194 2.2275C8.25894 2.1765 8.68794 2.1615 10.9244 2.16V2.163V2.163ZM18.4064 4.155C18.2173 4.155 18.0301 4.19225 17.8554 4.26461C17.6807 4.33698 17.5219 4.44305 17.3882 4.57677C17.2545 4.71048 17.1484 4.86923 17.0761 5.04394C17.0037 5.21864 16.9664 5.4059 16.9664 5.595C16.9664 5.7841 17.0037 5.97135 17.0761 6.14606C17.1484 6.32077 17.2545 6.47952 17.3882 6.61323C17.5219 6.74695 17.6807 6.85302 17.8554 6.92539C18.0301 6.99775 18.2173 7.035 18.4064 7.035C18.7884 7.035 19.1546 6.88329 19.4247 6.61323C19.6947 6.34318 19.8464 5.97691 19.8464 5.595C19.8464 5.21309 19.6947 4.84682 19.4247 4.57677C19.1546 4.30671 18.7884 4.155 18.4064 4.155V4.155ZM12.0014 5.838C11.184 5.82525 10.3723 5.97523 9.61341 6.27921C8.85453 6.58319 8.16371 7.03511 7.58116 7.60864C6.99862 8.18216 6.53599 8.86585 6.2202 9.61989C5.90442 10.3739 5.74179 11.1833 5.74179 12.0007C5.74179 12.8182 5.90442 13.6276 6.2202 14.3816C6.53599 15.1356 6.99862 15.8193 7.58116 16.3929C8.16371 16.9664 8.85453 17.4183 9.61341 17.7223C10.3723 18.0263 11.184 18.1763 12.0014 18.1635C13.6193 18.1383 15.1623 17.4779 16.2974 16.3249C17.4326 15.1719 18.0688 13.6188 18.0688 12.0007C18.0688 10.3827 17.4326 8.82962 16.2974 7.67662C15.1623 6.52363 13.6193 5.86324 12.0014 5.838V5.838ZM12.0014 7.9995C13.0624 7.9995 14.08 8.42098 14.8302 9.17122C15.5805 9.92146 16.0019 10.939 16.0019 12C16.0019 13.061 15.5805 14.0785 14.8302 14.8288C14.08 15.579 13.0624 16.0005 12.0014 16.0005C10.9404 16.0005 9.9229 15.579 9.17266 14.8288C8.42242 14.0785 8.00094 13.061 8.00094 12C8.00094 10.939 8.42242 9.92146 9.17266 9.17122C9.9229 8.42098 10.9404 7.9995 12.0014 7.9995V7.9995Z" fill="white"/>
</svg>
