<svg width="30" height="30" viewBox="0 0 30 30" fill="none" xmlns="http://www.w3.org/2000/svg">
<path fill-rule="evenodd" clip-rule="evenodd" d="M8.95333 0.421252C10.5173 0.349252 11.016 0.333252 15 0.333252C18.984 0.333252 19.4827 0.350585 21.0453 0.421252C22.608 0.491919 23.6747 0.741252 24.608 1.10259C25.5853 1.47192 26.472 2.04925 27.2053 2.79592C27.952 3.52792 28.528 4.41325 28.896 5.39192C29.2587 6.32525 29.5067 7.39192 29.5787 8.95192C29.6507 10.5186 29.6667 11.0173 29.6667 14.9999C29.6667 18.9839 29.6493 19.4826 29.5787 21.0466C29.508 22.6066 29.2587 23.6733 28.896 24.6066C28.528 25.5854 27.951 26.4722 27.2053 27.2053C26.472 27.9519 25.5853 28.5279 24.608 28.8959C23.6747 29.2586 22.608 29.5066 21.048 29.5786C19.4827 29.6506 18.984 29.6666 15 29.6666C11.016 29.6666 10.5173 29.6493 8.95333 29.5786C7.39333 29.5079 6.32667 29.2586 5.39333 28.8959C4.41456 28.5279 3.52776 27.9509 2.79467 27.2053C2.04851 26.4728 1.47109 25.5864 1.10267 24.6079C0.741332 23.6746 0.493332 22.6079 0.421332 21.0479C0.349332 19.4813 0.333332 18.9826 0.333332 14.9999C0.333332 11.0159 0.350665 10.5173 0.421332 8.95459C0.491999 7.39192 0.741332 6.32525 1.10267 5.39192C1.47163 4.41336 2.04949 3.527 2.796 2.79459C3.52805 2.04859 4.41396 1.47118 5.392 1.10259C6.32533 0.741252 7.392 0.493252 8.952 0.421252H8.95333ZM20.9267 3.06125C19.38 2.99059 18.916 2.97592 15 2.97592C11.084 2.97592 10.62 2.99059 9.07333 3.06125C7.64267 3.12659 6.86667 3.36525 6.34933 3.56659C5.66533 3.83325 5.176 4.14925 4.66267 4.66259C4.17606 5.13599 3.80157 5.7123 3.56667 6.34925C3.36533 6.86659 3.12667 7.64259 3.06133 9.07325C2.99067 10.6199 2.976 11.0839 2.976 14.9999C2.976 18.9159 2.99067 19.3799 3.06133 20.9266C3.12667 22.3573 3.36533 23.1333 3.56667 23.6506C3.80133 24.2866 4.176 24.8639 4.66267 25.3373C5.136 25.8239 5.71333 26.1986 6.34933 26.4333C6.86667 26.6346 7.64267 26.8733 9.07333 26.9386C10.62 27.0093 11.0827 27.0239 15 27.0239C18.9173 27.0239 19.38 27.0093 20.9267 26.9386C22.3573 26.8733 23.1333 26.6346 23.6507 26.4333C24.3347 26.1666 24.824 25.8506 25.3373 25.3373C25.824 24.8639 26.1987 24.2866 26.4333 23.6506C26.6347 23.1333 26.8733 22.3573 26.9387 20.9266C27.0093 19.3799 27.024 18.9159 27.024 14.9999C27.024 11.0839 27.0093 10.6199 26.9387 9.07325C26.8733 7.64259 26.6347 6.86659 26.4333 6.34925C26.1667 5.66525 25.8507 5.17592 25.3373 4.66259C24.8639 4.17601 24.2876 3.80153 23.6507 3.56659C23.1333 3.36525 22.3573 3.12659 20.9267 3.06125ZM13.1267 19.5213C14.1729 19.9568 15.3378 20.0155 16.4226 19.6875C17.5073 19.3596 18.4445 18.6651 19.0741 17.7229C19.7038 16.7807 19.9867 15.6491 19.8747 14.5214C19.7627 13.3937 19.2627 12.3399 18.46 11.5399C17.9483 11.0286 17.3296 10.637 16.6484 10.3934C15.9673 10.1499 15.2406 10.0604 14.5207 10.1314C13.8007 10.2024 13.1055 10.4322 12.4851 10.8041C11.8646 11.176 11.3343 11.6809 10.9324 12.2824C10.5305 12.8839 10.2669 13.567 10.1607 14.2825C10.0545 14.9981 10.1082 15.7283 10.3181 16.4206C10.5279 17.1129 10.8886 17.7501 11.3743 18.2862C11.8599 18.8224 12.4584 19.2442 13.1267 19.5213ZM9.66933 9.66925C10.3694 8.96922 11.2004 8.41392 12.1151 8.03507C13.0297 7.65621 14.01 7.46122 15 7.46122C15.99 7.46122 16.9703 7.65621 17.8849 8.03507C18.7996 8.41392 19.6306 8.96922 20.3307 9.66925C21.0307 10.3693 21.586 11.2003 21.9649 12.115C22.3437 13.0296 22.5387 14.0099 22.5387 14.9999C22.5387 15.9899 22.3437 16.9702 21.9649 17.8849C21.586 18.7995 21.0307 19.6306 20.3307 20.3306C18.9169 21.7444 16.9994 22.5386 15 22.5386C13.0006 22.5386 11.0831 21.7444 9.66933 20.3306C8.25555 18.9168 7.4613 16.9993 7.4613 14.9999C7.4613 13.0005 8.25555 11.083 9.66933 9.66925ZM24.2107 8.58392C24.3841 8.42028 24.523 8.22349 24.6191 8.00522C24.7151 7.78694 24.7664 7.55161 24.7699 7.31316C24.7734 7.07471 24.729 6.83798 24.6393 6.617C24.5497 6.39602 24.4166 6.19527 24.2479 6.02664C24.0793 5.85801 23.8786 5.72493 23.6576 5.63528C23.4366 5.54562 23.1999 5.50122 22.9614 5.5047C22.723 5.50817 22.4876 5.55946 22.2694 5.65551C22.0511 5.75157 21.8543 5.89045 21.6907 6.06392C21.3724 6.40129 21.1982 6.84941 21.2049 7.31316C21.2117 7.7769 21.3989 8.21976 21.7269 8.54771C22.0548 8.87566 22.4977 9.06289 22.9614 9.06965C23.4252 9.07641 23.8733 8.90217 24.2107 8.58392Z" fill="url(#paint0_linear_329_16)"/>
<defs>
<linearGradient id="paint0_linear_329_16" x1="15" y1="0.333252" x2="15" y2="29.6666" gradientUnits="userSpaceOnUse">
<stop stop-color="#B629F8"/>
<stop offset="1" stop-color="#800ADD"/>
</linearGradient>
</defs>
</svg>
