<svg width="32" height="32" viewBox="0 0 24 24" fill="none" xmlns="http://www.w3.org/2000/svg">
<path fill-rule="evenodd" clip-rule="evenodd" d="M17.4149 14.382C17.1169 14.233 15.6559 13.515 15.3839 13.415C15.1119 13.316 14.9139 13.267 14.7149 13.565C14.5169 13.861 13.9479 14.531 13.7749 14.729C13.6009 14.928 13.4279 14.952 13.1309 14.804C12.8339 14.654 11.8759 14.341 10.7409 13.329C9.85794 12.541 9.26094 11.568 9.08794 11.27C8.91494 10.973 9.06894 10.812 9.21794 10.664C9.35194 10.531 9.51494 10.317 9.66394 10.144C9.81294 9.97004 9.86194 9.84604 9.96094 9.64704C10.0609 9.44904 10.0109 9.27604 9.93594 9.12704C9.86194 8.97804 9.26794 7.51504 9.01994 6.92004C8.77894 6.34104 8.53394 6.42004 8.35194 6.41004C8.17794 6.40204 7.97994 6.40004 7.78194 6.40004C7.58394 6.40004 7.26194 6.47404 6.98994 6.77204C6.71694 7.06904 5.94994 7.78804 5.94994 9.25104C5.94994 10.713 7.01394 12.126 7.16294 12.325C7.31194 12.523 9.25794 15.525 12.2389 16.812C12.9489 17.118 13.5019 17.301 13.9329 17.437C14.6449 17.664 15.2929 17.632 15.8049 17.555C16.3749 17.47 17.5629 16.836 17.8109 16.142C18.0579 15.448 18.0579 14.853 17.9839 14.729C17.9099 14.605 17.7119 14.531 17.4139 14.382H17.4149ZM11.9929 21.785H11.9889C10.2184 21.7854 8.48031 21.3094 6.95694 20.407L6.59694 20.193L2.85494 21.175L3.85394 17.527L3.61894 17.153C2.62908 15.5774 2.10523 13.7538 2.10794 11.893C2.10994 6.44304 6.54394 2.00904 11.9969 2.00904C14.6369 2.00904 17.1189 3.03904 18.9849 4.90704C19.9053 5.82362 20.6348 6.91361 21.1312 8.11394C21.6276 9.31427 21.8811 10.6011 21.8769 11.9C21.8749 17.35 17.4409 21.785 11.9929 21.785V21.785ZM20.4049 3.48804C19.3031 2.37896 17.9922 1.49958 16.548 0.900841C15.1039 0.302105 13.5553 -0.00407625 11.9919 4.09775e-05C5.43794 4.09775e-05 0.101939 5.33504 0.099939 11.892C0.096902 13.9788 0.644313 16.0294 1.68694 17.837L-6.10352e-05 24L6.30394 22.346C8.04781 23.2962 10.002 23.794 11.9879 23.794H11.9929C18.5469 23.794 23.8829 18.459 23.8849 11.901C23.8898 10.3383 23.5847 8.79014 22.9874 7.34607C22.39 5.90201 21.5123 4.59071 20.4049 3.48804" fill="white"/>
</svg>
